<?xml version="1.0" encoding="utf-8"?>
<!-- Generator: Adobe Illustrator 19.2.0, SVG Export Plug-In . SVG Version: 6.00 Build 0)  -->
<svg version="1.1" id="Layer_1" xmlns="http://www.w3.org/2000/svg" xmlns:xlink="http://www.w3.org/1999/xlink" x="0px" y="0px"
	 viewBox="0 0 500 290" style="enable-background:new 0 0 500 290;" xml:space="preserve">
<style type="text/css">
	.st0{fill:none;stroke:#E5E5E4;stroke-width:0.5;stroke-miterlimit:10;}
</style>
<g>
	<polygon class="st0" points="249.2,0.7 500,145.5 250.8,289.3 0,144.5 	"/>
	<line class="st0" x1="11.9" y1="137.7" x2="262.7" y2="282.5"/>
	<line class="st0" x1="23.7" y1="130.8" x2="274.5" y2="275.6"/>
	<line class="st0" x1="35.6" y1="124" x2="286.4" y2="268.8"/>
	<line class="st0" x1="47.5" y1="117.1" x2="298.3" y2="261.9"/>
	<line class="st0" x1="59.3" y1="110.3" x2="310.1" y2="255.1"/>
	<line class="st0" x1="71.2" y1="103.4" x2="322" y2="248.2"/>
	<line class="st0" x1="83.1" y1="96.6" x2="333.9" y2="241.4"/>
	<line class="st0" x1="94.9" y1="89.7" x2="345.7" y2="234.5"/>
	<line class="st0" x1="106.8" y1="82.9" x2="357.6" y2="227.7"/>
	<line class="st0" x1="118.7" y1="76" x2="369.5" y2="220.8"/>
	<line class="st0" x1="130.5" y1="69.2" x2="381.3" y2="214"/>
	<line class="st0" x1="142.4" y1="62.3" x2="393.2" y2="207.1"/>
	<line class="st0" x1="154.3" y1="55.5" x2="405.1" y2="200.3"/>
	<line class="st0" x1="166.1" y1="48.6" x2="416.9" y2="193.4"/>
	<line class="st0" x1="178" y1="41.8" x2="428.8" y2="186.6"/>
	<line class="st0" x1="189.9" y1="34.9" x2="440.7" y2="179.7"/>
	<line class="st0" x1="201.7" y1="28.1" x2="452.5" y2="172.9"/>
	<line class="st0" x1="213.6" y1="21.2" x2="464.4" y2="166"/>
	<line class="st0" x1="225.5" y1="14.4" x2="476.3" y2="159.2"/>
	<line class="st0" x1="237.3" y1="7.5" x2="488.1" y2="152.3"/>
	<line class="st0" x1="488.1" y1="138.6" x2="238.8" y2="282.4"/>
	<line class="st0" x1="476.1" y1="131.7" x2="226.9" y2="275.5"/>
	<line class="st0" x1="464.2" y1="124.8" x2="215" y2="268.7"/>
	<line class="st0" x1="452.2" y1="117.9" x2="203" y2="261.8"/>
	<line class="st0" x1="440.3" y1="111" x2="191.1" y2="254.9"/>
	<line class="st0" x1="428.3" y1="104.1" x2="179.1" y2="248"/>
	<line class="st0" x1="416.4" y1="97.2" x2="167.2" y2="241.1"/>
	<line class="st0" x1="404.5" y1="90.3" x2="155.2" y2="234.2"/>
	<line class="st0" x1="392.5" y1="83.4" x2="143.3" y2="227.3"/>
	<line class="st0" x1="380.6" y1="76.5" x2="131.4" y2="220.4"/>
	<line class="st0" x1="368.6" y1="69.6" x2="119.4" y2="213.5"/>
	<line class="st0" x1="356.7" y1="62.7" x2="107.5" y2="206.6"/>
	<line class="st0" x1="344.8" y1="55.8" x2="95.5" y2="199.7"/>
	<line class="st0" x1="332.8" y1="48.9" x2="83.6" y2="192.8"/>
	<line class="st0" x1="320.9" y1="42" x2="71.7" y2="185.9"/>
	<line class="st0" x1="308.9" y1="35.1" x2="59.7" y2="179"/>
	<line class="st0" x1="297" y1="28.2" x2="47.8" y2="172.1"/>
	<line class="st0" x1="285" y1="21.3" x2="35.8" y2="165.2"/>
	<line class="st0" x1="273.1" y1="14.5" x2="23.9" y2="158.3"/>
	<line class="st0" x1="261.2" y1="7.6" x2="11.9" y2="151.4"/>
</g>
</svg>
