<?xml version="1.0" encoding="iso-8859-1"?>
<!-- Generator: Adobe Illustrator 16.0.0, SVG Export Plug-In . SVG Version: 6.00 Build 0)  -->
<!DOCTYPE svg PUBLIC "-//W3C//DTD SVG 1.1//EN" "http://www.w3.org/Graphics/SVG/1.1/DTD/svg11.dtd">
<svg xmlns="http://www.w3.org/2000/svg" xmlns:xlink="http://www.w3.org/1999/xlink" version="1.1" id="Capa_1" x="0px" y="0px" width="512px" height="512px" viewBox="0 0 44.934 44.934" style="enable-background:new 0 0 44.934 44.934;" xml:space="preserve">
<defs>
	<style type="text/css">

		.st0{fill:#fff;;stroke:#000000;stroke-width:5;stroke-miterlimit:5;}

		.st0 {
			stroke-dasharray: 2000;
			stroke-dashoffset:0;
			-webkit-animation: dash 4s linear forwards;
			-o-animation: dash 4s linear forwards;
			-moz-animation: dash 4s linear forwards;
			animation: dash 4s linear forwards;
		}

		#logo {
		cursor:pointer;
		}

		#logo:hover .st0 {
			fill:#000;
			transition: .8s;
		}

		#logo.clickit .st0 {
			fill:#1b75bb;
			stroke: #1b75bb;
		}

		@-webkit-keyframes dash {
			from {
				stroke-dashoffset: 2000;
			}
			to {
				stroke-dashoffset: 0;
			}
		}

	</style>

	<script type="text/javascript">

		var clicker = document.querySelector('#logo');

		clicker.addEventListener('click', function() {

			this.classList.toggle('clickit');

		});

	</script>

</defs>
<g>
	<g id="Layer_93_60_">
		<g>
			<path class="st0" d="M39.917,6.267H5.023v23.01h34.894V6.267z M36.379,25.739H8.56V9.803h27.819V25.739z" fill="#30303b"/>
			<polygon points="27.269,37.155 17.754,37.155 0,37.155 0,38.667 44.934,38.667 44.934,37.155    " fill="#30303b"/>
			<path d="M39.91,30.345H22.964h-0.993H5.023l-4.753,6.35h44.395L39.91,30.345z M34.894,31.511h1.919v0.958h-1.919V31.511z      M37.998,33.04v0.958h-1.9V33.04H37.998z M35.621,33.04v0.958h-1.918V33.04H35.621z M32.27,31.511h1.918v0.958H32.27V31.511z      M32.998,33.04v0.958H31.08V33.04H32.998z M29.588,31.511h1.918v0.958h-1.918V31.511z M30.316,33.04v0.958h-1.918V33.04H30.316z      M26.842,31.511h1.918v0.958h-1.918V31.511z M24.16,31.511h1.918v0.958H24.16V31.511z M24.887,33.04v0.958h-1.918V33.04H24.887z      M21.536,31.511h1.917v0.958h-1.917V31.511z M22.263,33.04v0.958h-1.918V33.04H22.263z M18.854,31.511h1.918v0.958h-1.918V31.511     z M19.582,33.04v0.958h-1.918V33.04H19.582z M16.114,31.511h1.918v0.958h-1.918V31.511z M16.842,33.04v0.958h-1.918V33.04H16.842     z M13.433,31.511h1.918v0.958h-1.918V31.511z M14.16,33.04v0.958h-1.918V33.04H14.16z M10.809,31.511h1.918v0.958h-1.918V31.511z      M11.537,33.04v0.958H9.619V33.04H11.537z M8.127,31.511h1.918v0.958H8.127V31.511z M6.936,33.04h1.919v0.958H6.936V33.04z      M7.309,35.446H5.391v-0.959h1.918V35.446z M9.76,35.446H7.842v-0.959H9.76V35.446z M12.442,35.446h-1.918v-0.959h1.918V35.446z      M15.066,35.446h-1.919v-0.959h1.918L15.066,35.446L15.066,35.446z M17.747,35.446h-1.918v-0.959h1.918V35.446z M25.625,35.446     h-7.056v-0.959h7.056V35.446z M25.65,33.04h1.918v0.958H25.65V33.04z M28.474,35.446h-1.918v-0.959h1.918V35.446z M31.221,35.446     h-1.918v-0.959h1.918V35.446z M33.902,35.446h-1.918v-0.959h1.918V35.446z M36.527,35.446h-1.918v-0.959h1.918V35.446z      M38.949,35.446h-1.918v-0.959h1.918V35.446z" fill="#30303b"/>
		</g>
	</g>
</g>
<g>
</g>
<g>
</g>
<g>
</g>
<g>
</g>
<g>
</g>
<g>
</g>
<g>
</g>
<g>
</g>
<g>
</g>
<g>
</g>
<g>
</g>
<g>
</g>
<g>
</g>
<g>
</g>
<g>
</g>
</svg>
